PathFileType	4	(X/Y/Z)	s11c0101.trc
DataRate	CameraRate	NumFrames	NumMarkers	Units	OrigDataRate	OrigDataStartFrame	OrigNumFrames
200	200	4	48	mm	200	1250	2000
Frame#	Time	racr			lacr			c7			jug			rlel			rdr			llel			ldr			s2			lic			ric			lasi			rasi			rpsi			lpsi			rgt			lgt			rth1			rth2			rth3			rth4			rlfc			rmfc			rsh1			rsh2			rsh3			rsh4			rlmal			rcal			rtoe			rmt5			lth1			lth2			lth4			lth3			llfc			lmfc			llmal			lcal			lmt5			lsh1			lsh2			lsh3			lsh4			ltoe			SBIKE			LBIKE			RBIKE			
		X1	Y1	Z1	X2	Y2	Z2	X3	Y3	Z3	X4	Y4	Z4	X5	Y5	Z5	X6	Y6	Z6	X7	Y7	Z7	X8	Y8	Z8	X9	Y9	Z9	X10	Y10	Z10	X11	Y11	Z11	X12	Y12	Z12	X13	Y13	Z13	X14	Y14	Z14	X15	Y15	Z15	X16	Y16	Z16	X17	Y17	Z17	X18	Y18	Z18	X19	Y19	Z19	X20	Y20	Z20	X21	Y21	Z21	X22	Y22	Z22	X23	Y23	Z23	X24	Y24	Z24	X25	Y25	Z25	X26	Y26	Z26	X27	Y27	Z27	X28	Y28	Z28	X29	Y29	Z29	X30	Y30	Z30	X31	Y31	Z31	X32	Y32	Z32	X33	Y33	Z33	X34	Y34	Z34	X35	Y35	Z35	X36	Y36	Z36	X37	Y37	Z37	X38	Y38	Z38	X39	Y39	Z39	X40	Y40	Z40	X41	Y41	Z41	X42	Y42	Z42	X43	Y43	Z43	X44	Y44	Z44	X45	Y45	Z45	X46	Y46	Z46	X47	Y47	Z47	X48	Y48	Z48	
1250	6.2500	544.946949	1347.709743	-101.632436	517.625172	1347.111795	-433.541875	488.491949	1440.457047	-262.110069	468.083802	1255.466147	-271.784441	567.071552	1096.688678	34.014963	777.282940	934.425437	-65.064924	481.782663	1062.387110	-566.687476	767.136300	932.941594	-486.049103	-91.629699	1224.840911	-242.025617	116.287562	1256.606782	-458.860797	133.300335	1212.724090	-51.862266	144.780864	1191.336665	-411.169017	158.413673	1151.292414	-85.898740	-43.016963	1295.455171	-182.681585	-53.128355	1295.500959	-280.928828	53.890154	1056.738721	-41.225027	47.528435	1144.032286	-471.477629	117.077433	931.549150	-32.293599	176.302427	865.127269	-43.665920	192.537845	781.561526	-63.867241	208.831085	882.108234	-50.916249	243.568686	690.205608	-88.749512	238.891794	673.201415	-212.582574	202.706076	542.068344	-69.837091	200.674911	455.320619	-88.192869	157.749978	379.263091	-88.015593	223.502255	452.118623	-120.279464	116.347503	243.772077	-99.967085	52.019182	230.670656	-145.943496	332.438504	172.798197	-148.266943	263.045217	149.436167	-76.930376	186.015049	1095.710884	-484.455481	271.590420	1091.846264	-481.675212	283.908875	1124.726460	-467.896184	347.006653	1043.148620	-487.440075	465.613496	989.817847	-471.229677	488.563463	979.973943	-335.029924	213.173724	650.621424	-419.853890	149.434904	641.008644	-382.366615	291.900755	491.874690	-451.135317	400.314706	895.343186	-477.191947	372.227582	815.594521	-458.774063	306.473336	757.428158	-448.567646	400.761096	800.883293	-437.706795	385.855313	459.026511	-388.412283	-215.482865	960.615498	-257.313427	-17.818779	80.979179	-461.117076	-17.809040	81.032410	-62.228417	
1251	6.2550	545.500334	1346.197414	-104.174255	517.452519	1347.533435	-434.047669	489.415302	1439.197658	-263.462837	468.245003	1254.347523	-274.148731	566.833499	1096.225610	33.152257	777.281933	934.318226	-64.955713	482.051670	1063.287297	-567.794668	767.210668	933.146114	-486.373484	-91.762697	1226.947058	-240.379873	115.170878	1258.658770	-457.915833	134.966773	1213.293078	-52.060400	143.559143	1193.325151	-410.841103	159.323354	1152.293133	-86.139615	-42.272019	1297.260388	-180.907641	-53.359415	1298.045553	-279.393102	53.386491	1058.334490	-40.257815	46.158548	1147.212057	-471.115430	116.462631	933.304691	-31.348347	176.009263	867.181102	-42.377979	192.903079	783.784895	-63.296464	208.534303	884.349224	-48.927226	244.297274	692.501943	-87.442181	242.616540	676.141928	-212.559474	201.575947	544.691286	-69.324031	197.767484	458.151910	-87.754677	153.348083	382.889578	-87.670641	220.659880	454.455718	-119.771739	108.875945	248.545737	-99.799305	44.811515	237.384669	-145.966510	323.402299	171.118057	-148.235740	253.375606	150.009046	-76.866001	184.994948	1098.701861	-483.740914	270.507910	1094.681108	-480.589320	282.805119	1127.426866	-466.617467	345.979840	1045.760193	-485.609660	464.467544	993.256607	-469.896996	487.866959	983.805917	-333.605392	219.067553	647.696718	-419.826571	155.276666	636.462885	-382.328072	301.814376	491.489090	-451.324633	401.490612	896.706135	-476.030222	375.192369	816.185395	-458.200129	310.726684	756.547511	-448.288563	403.905988	802.188292	-436.772830	396.621024	461.322768	-388.406028	-215.510028	960.642618	-257.256797	-17.816613	81.031225	-461.075294	-17.821857	81.069844	-62.229379	
1252	6.2600	545.864073	1344.529051	-106.689909	517.358606	1347.628463	-434.438443	490.340161	1437.488914	-264.582325	468.465342	1252.792126	-276.447089	566.342999	1095.454943	32.565918	777.106693	934.233005	-64.807365	482.739807	1064.063292	-568.982356	767.138015	933.327937	-486.644778	-91.885972	1229.172733	-238.898043	113.796028	1260.785242	-456.897173	136.485413	1213.686010	-52.097858	142.091849	1194.936501	-410.462155	160.099136	1153.236730	-86.412620	-41.906587	1299.473577	-178.893124	-53.360262	1300.444375	-278.303389	52.964492	1059.958679	-39.330687	44.553545	1150.068277	-470.601880	116.240212	935.156836	-30.576714	176.491196	869.538035	-41.395356	194.275541	786.496873	-62.770389	208.943282	887.084587	-47.280361	246.161936	695.505616	-86.066507	247.655534	679.219664	-211.142585	201.165322	547.593059	-68.770538	195.632912	461.455168	-87.295579	149.596523	387.142748	-87.519098	218.436498	457.380523	-119.365024	102.476192	253.962615	-99.881803	38.130586	245.023723	-146.118679	314.599623	169.841077	-148.223806	243.815922	151.143046	-76.798938	183.697616	1101.175193	-482.943032	269.208457	1096.822941	-479.406455	281.533976	1129.500095	-465.435203	344.482211	1047.690012	-483.946440	463.138539	995.805519	-468.280782	486.626535	986.703286	-332.021018	224.534704	643.817798	-419.915021	160.351509	630.765971	-382.569163	311.501452	490.447300	-451.548110	402.262220	896.970178	-474.740782	377.709223	815.749425	-457.453206	314.531450	754.523616	-447.974990	406.573049	802.391394	-435.762616	407.103991	463.243023	-388.457517	-215.529418	960.679300	-257.206056	-17.832175	81.055799	-461.100817	-17.837505	81.104559	-62.239418	
1253	6.2650	546.098944	1342.354099	-109.170957	517.305588	1347.352449	-434.713308	491.316749	1435.583885	-265.700643	468.382459	1251.086869	-278.631978	565.652340	1094.476880	32.454142	776.811826	934.164074	-64.542657	483.257099	1064.477649	-570.120849	766.939819	933.439760	-486.897007	-92.422411	1231.579927	-237.720698	112.430988	1263.078768	-456.301802	139.137243	1214.764221	-50.921508	140.478505	1196.547552	-410.268031	160.662195	1154.239386	-86.454697	-41.500668	1301.360739	-177.177180	-53.859692	1302.985313	-276.766138	52.554963	1061.651856	-38.466437	42.627401	1152.566771	-469.901489	116.524955	937.115392	-29.983814	177.714374	872.344710	-40.707887	196.700398	789.643053	-62.600762	210.021362	890.119940	-45.954715	249.136685	698.890495	-84.763931	252.240457	683.442319	-210.990242	201.612607	551.373864	-68.148573	194.103589	465.303353	-86.970926	146.510868	391.977638	-87.326992	216.873199	460.718161	-118.969043	96.515419	260.255251	-99.961581	32.084370	253.242354	-146.300219	305.774149	168.872964	-148.267286	234.502267	152.921725	-76.792328	182.094839	1103.182566	-482.184085	267.545274	1098.403901	-478.246673	279.999504	1130.990314	-464.185302	342.654015	1048.845708	-482.575165	461.499811	997.470786	-466.573901	484.867921	988.752104	-330.414110	229.548799	639.021773	-420.017961	165.068730	623.863222	-382.800359	320.916164	488.758998	-451.660520	402.585852	895.979409	-473.431902	379.690037	814.101482	-456.638169	317.771974	751.720711	-447.530853	408.677466	801.403273	-434.769079	417.326751	464.705542	-388.535142	-215.566541	960.701470	-257.117318	-17.830357	81.101712	-461.120118	-17.829185	81.136779	-62.243479	
